<?xml version="1.0" encoding="utf-8" standalone="no"?>
<!DOCTYPE svg PUBLIC "-//W3C//DTD SVG 1.1//EN"
  "http://www.w3.org/Graphics/SVG/1.1/DTD/svg11.dtd">
<!-- Created with matplotlib (http://matplotlib.org/) -->
<svg height="144pt" version="1.1" viewBox="0 0 216 144" width="216pt" xmlns="http://www.w3.org/2000/svg" xmlns:xlink="http://www.w3.org/1999/xlink">
 <defs>
  <style type="text/css">
*{stroke-linecap:butt;stroke-linejoin:round;}
  </style>
 </defs>
 <g id="figure_1">
  <g id="patch_1">
   <path d="M 0 144 
L 216 144 
L 216 0 
L 0 0 
z
" style="fill:#ffffff;"/>
  </g>
  <g id="axes_1">
   <g id="patch_2">
    <path d="M 27 126 
L 194.4 126 
L 194.4 17.28 
L 27 17.28 
z
" style="fill:#ffffff;"/>
   </g>
   <g id="matplotlib.axis_1">
    <g id="xtick_1">
     <g id="line2d_1">
      <defs>
       <path d="M 0 0 
L 0 6 
" id="m70a0e3bfb3" style="stroke:#262626;stroke-width:0.8;"/>
      </defs>
      <g>
       <use style="fill:#262626;stroke:#262626;stroke-width:0.8;" x="34.609091" xlink:href="#m70a0e3bfb3" y="131"/>
      </g>
     </g>
     <g id="text_1">
      <text style="fill:#262626;font-family:Arial;font-size:8px;font-style:normal;font-weight:normal;text-anchor:middle;" transform="rotate(-0, 34.609091, 146.22625)" x="34.609091" y="146.22625">0</text>
     </g>
    </g>
    <g id="xtick_2">
     <g id="line2d_2">
      <g>
       <use style="fill:#262626;stroke:#262626;stroke-width:0.8;" x="65.352893" xlink:href="#m70a0e3bfb3" y="131"/>
      </g>
     </g>
     <g id="text_2">
      <text style="fill:#262626;font-family:Arial;font-size:8px;font-style:normal;font-weight:normal;text-anchor:middle;" transform="rotate(-0, 65.352893, 146.22625)" x="65.352893" y="146.22625">20</text>
     </g>
    </g>
    <g id="xtick_3">
     <g id="line2d_3">
      <g>
       <use style="fill:#262626;stroke:#262626;stroke-width:0.8;" x="96.096694" xlink:href="#m70a0e3bfb3" y="131"/>
      </g>
     </g>
     <g id="text_3">
      <text style="fill:#262626;font-family:Arial;font-size:8px;font-style:normal;font-weight:normal;text-anchor:middle;" transform="rotate(-0, 96.096694, 146.22625)" x="96.096694" y="146.22625">40</text>
     </g>
    </g>
    <g id="xtick_4">
     <g id="line2d_4">
      <g>
       <use style="fill:#262626;stroke:#262626;stroke-width:0.8;" x="126.840496" xlink:href="#m70a0e3bfb3" y="131"/>
      </g>
     </g>
     <g id="text_4">
      <text style="fill:#262626;font-family:Arial;font-size:8px;font-style:normal;font-weight:normal;text-anchor:middle;" transform="rotate(-0, 126.840496, 146.22625)" x="126.840496" y="146.22625">60</text>
     </g>
    </g>
    <g id="xtick_5">
     <g id="line2d_5">
      <g>
       <use style="fill:#262626;stroke:#262626;stroke-width:0.8;" x="157.584298" xlink:href="#m70a0e3bfb3" y="131"/>
      </g>
     </g>
     <g id="text_5">
      <text style="fill:#262626;font-family:Arial;font-size:8px;font-style:normal;font-weight:normal;text-anchor:middle;" transform="rotate(-0, 157.584298, 146.22625)" x="157.584298" y="146.22625">80</text>
     </g>
    </g>
    <g id="xtick_6">
     <g id="line2d_6">
      <g>
       <use style="fill:#262626;stroke:#262626;stroke-width:0.8;" x="188.328099" xlink:href="#m70a0e3bfb3" y="131"/>
      </g>
     </g>
     <g id="text_6">
      <text style="fill:#262626;font-family:Arial;font-size:8px;font-style:normal;font-weight:normal;text-anchor:middle;" transform="rotate(-0, 188.328099, 146.22625)" x="188.328099" y="146.22625">100</text>
     </g>
    </g>
    <g id="text_7">
     <text style="fill:#262626;font-family:Arial;font-size:8px;font-style:normal;font-weight:normal;text-anchor:middle;" transform="rotate(-0, 110.7, 157.5425)" x="110.7" y="157.5425">Time [au]</text>
    </g>
   </g>
   <g id="matplotlib.axis_2">
    <g id="ytick_1">
     <g id="line2d_7">
      <defs>
       <path d="M 0 0 
L -6 0 
" id="m53f78ef221" style="stroke:#262626;stroke-width:0.8;"/>
      </defs>
      <g>
       <use style="fill:#262626;stroke:#262626;stroke-width:0.8;" x="22" xlink:href="#m53f78ef221" y="112.275229"/>
      </g>
     </g>
     <g id="text_8">
      <text style="fill:#262626;font-family:Arial;font-size:8px;font-style:normal;font-weight:normal;text-anchor:end;" transform="rotate(-0, 12.5, 115.138354)" x="12.5" y="115.138354">−2</text>
     </g>
    </g>
    <g id="ytick_2">
     <g id="line2d_8">
      <g>
       <use style="fill:#262626;stroke:#262626;stroke-width:0.8;" x="22" xlink:href="#m53f78ef221" y="89.523558"/>
      </g>
     </g>
     <g id="text_9">
      <text style="fill:#262626;font-family:Arial;font-size:8px;font-style:normal;font-weight:normal;text-anchor:end;" transform="rotate(-0, 12.5, 92.386683)" x="12.5" y="92.386683">−1</text>
     </g>
    </g>
    <g id="ytick_3">
     <g id="line2d_9">
      <g>
       <use style="fill:#262626;stroke:#262626;stroke-width:0.8;" x="22" xlink:href="#m53f78ef221" y="66.771886"/>
      </g>
     </g>
     <g id="text_10">
      <text style="fill:#262626;font-family:Arial;font-size:8px;font-style:normal;font-weight:normal;text-anchor:end;" transform="rotate(-0, 12.5, 69.635011)" x="12.5" y="69.635011">0</text>
     </g>
    </g>
    <g id="ytick_4">
     <g id="line2d_10">
      <g>
       <use style="fill:#262626;stroke:#262626;stroke-width:0.8;" x="22" xlink:href="#m53f78ef221" y="44.020214"/>
      </g>
     </g>
     <g id="text_11">
      <text style="fill:#262626;font-family:Arial;font-size:8px;font-style:normal;font-weight:normal;text-anchor:end;" transform="rotate(-0, 12.5, 46.883339)" x="12.5" y="46.883339">1</text>
     </g>
    </g>
    <g id="ytick_5">
     <g id="line2d_11">
      <g>
       <use style="fill:#262626;stroke:#262626;stroke-width:0.8;" x="22" xlink:href="#m53f78ef221" y="21.268543"/>
      </g>
     </g>
     <g id="text_12">
      <text style="fill:#262626;font-family:Arial;font-size:8px;font-style:normal;font-weight:normal;text-anchor:end;" transform="rotate(-0, 12.5, 24.131668)" x="12.5" y="24.131668">2</text>
     </g>
    </g>
    <g id="text_13">
     <text style="fill:#262626;font-family:Arial;font-size:8px;font-style:normal;font-weight:normal;text-anchor:middle;" transform="rotate(-90, -2.21125, 71.64)" x="-2.21125" y="71.64">Data [au]</text>
    </g>
   </g>
   <g id="line2d_12">
    <path clip-path="url(#p6c128cf425)" d="M 34.609091 81.296868 
L 36.146281 37.569384 
L 37.683471 99.857905 
L 39.220661 90.720285 
L 40.757851 80.867563 
L 42.295041 60.048407 
L 43.832231 26.305274 
L 45.369421 30.430495 
L 46.906612 51.45701 
L 48.443802 58.055336 
L 49.980992 59.076124 
L 51.518182 43.150942 
L 53.055372 66.542075 
L 54.592562 53.58449 
L 56.129752 87.512595 
L 57.666942 64.933914 
L 59.204132 88.73833 
L 60.741322 95.406794 
L 62.278512 64.424447 
L 63.815702 58.985756 
L 65.352893 93.25997 
L 66.890083 47.325572 
L 68.427273 75.99063 
L 69.964463 80.309768 
L 71.501653 58.173242 
L 73.038843 89.643838 
L 74.576033 107.160066 
L 76.113223 62.036643 
L 77.650413 64.557579 
L 79.187603 92.901239 
L 80.724793 46.794786 
L 82.261983 90.900794 
L 83.799174 59.672161 
L 85.336364 49.234146 
L 86.873554 92.820474 
L 88.410744 74.179325 
L 89.947934 48.266184 
L 91.485124 22.221818 
L 93.022314 72.116357 
L 94.559504 60.636859 
L 96.096694 91.563364 
L 97.633884 42.703194 
L 99.171074 50.142757 
L 100.708264 72.155335 
L 102.245455 71.28912 
L 103.782645 68.639771 
L 105.319835 45.223468 
L 106.857025 34.537472 
L 108.394215 75.390217 
L 109.931405 68.754459 
L 111.468595 93.763045 
L 113.005785 63.46733 
L 114.542975 46.277409 
L 116.080165 80.525816 
L 117.617355 77.409609 
L 119.154545 63.809722 
L 120.691736 97.041632 
L 122.228926 25.478 
L 123.766116 103.392563 
L 125.303306 83.767857 
L 126.840496 59.693423 
L 128.377686 92.741269 
L 129.914876 37.468051 
L 131.452066 54.114202 
L 132.989256 72.083092 
L 134.526446 64.186922 
L 136.063636 113.866804 
L 137.600826 62.72323 
L 139.138017 77.835784 
L 140.675207 75.856689 
L 142.212397 40.815208 
L 143.749587 68.584304 
L 145.286777 32.362531 
L 146.823967 85.62417 
L 148.361157 104.894546 
L 149.898347 94.198092 
L 151.435537 118.960623 
L 152.972727 53.09152 
L 154.509917 61.894028 
L 156.047107 104.924847 
L 157.584298 64.807787 
L 159.121488 46.357826 
L 160.658678 68.985622 
L 162.195868 36.194746 
L 163.733058 98.848939 
L 165.270248 69.34463 
L 166.807438 84.20449 
L 168.344628 84.558691 
L 169.881818 58.583354 
L 171.419008 67.675843 
L 172.956198 45.305372 
L 174.493388 47.17909 
L 176.030579 59.689471 
L 177.567769 64.401232 
L 179.104959 72.677023 
L 180.642149 75.122359 
L 182.179339 61.052407 
L 183.716529 23.758775 
L 185.253719 44.926154 
L 186.790909 121.058182 
" style="fill:none;stroke:#1f77b4;stroke-linecap:round;stroke-width:1.5;"/>
   </g>
   <g id="patch_3">
    <path d="M 22 112.275229 
L 22 21.268543 
" style="fill:none;stroke:#262626;stroke-linecap:square;stroke-linejoin:miter;stroke-width:1.25;"/>
   </g>
   <g id="patch_4">
    <path d="M 34.609091 131 
L 188.328099 131 
" style="fill:none;stroke:#262626;stroke-linecap:square;stroke-linejoin:miter;stroke-width:1.25;"/>
   </g>
  </g>
 </g>
 <defs>
  <clipPath id="p6c128cf425">
   <rect height="108.72" width="167.4" x="27" y="17.28"/>
  </clipPath>
 </defs>
</svg>
