<?xml version="1.0" encoding="utf-8" standalone="no"?>
<!DOCTYPE svg PUBLIC "-//W3C//DTD SVG 1.1//EN"
  "http://www.w3.org/Graphics/SVG/1.1/DTD/svg11.dtd">
<!-- Created with matplotlib (http://matplotlib.org/) -->
<svg height="144pt" version="1.1" viewBox="0 0 216 144" width="216pt" xmlns="http://www.w3.org/2000/svg" xmlns:xlink="http://www.w3.org/1999/xlink">
 <defs>
  <style type="text/css">
*{stroke-linecap:butt;stroke-linejoin:round;}
  </style>
 </defs>
 <g id="figure_1">
  <g id="patch_1">
   <path d="M 0 144 
L 216 144 
L 216 0 
L 0 0 
z
" style="fill:#ffffff;"/>
  </g>
  <g id="axes_1">
   <g id="patch_2">
    <path d="M 39.784375 107.7 
L 199.2 107.7 
L 199.2 16.8 
L 39.784375 16.8 
z
" style="fill:#ffffff;"/>
   </g>
   <g id="matplotlib.axis_1">
    <g id="xtick_1">
     <g id="line2d_1">
      <defs>
       <path d="M 0 0 
L 0 6 
" id="m36604300c4" style="stroke:#262626;stroke-width:0.8;"/>
      </defs>
      <g>
       <use style="fill:#262626;stroke:#262626;stroke-width:0.8;" x="47.03054" xlink:href="#m36604300c4" y="112.7"/>
      </g>
     </g>
     <g id="text_1">
      <text style="fill:#262626;font-family:Arial;font-size:8px;font-style:normal;font-weight:normal;text-anchor:middle;" transform="rotate(-0, 47.03054, 127.92625)" x="47.03054" y="127.92625">0</text>
     </g>
    </g>
    <g id="xtick_2">
     <g id="line2d_2">
      <g>
       <use style="fill:#262626;stroke:#262626;stroke-width:0.8;" x="76.307973" xlink:href="#m36604300c4" y="112.7"/>
      </g>
     </g>
     <g id="text_2">
      <text style="fill:#262626;font-family:Arial;font-size:8px;font-style:normal;font-weight:normal;text-anchor:middle;" transform="rotate(-0, 76.307973, 127.92625)" x="76.307973" y="127.92625">20</text>
     </g>
    </g>
    <g id="xtick_3">
     <g id="line2d_3">
      <g>
       <use style="fill:#262626;stroke:#262626;stroke-width:0.8;" x="105.585407" xlink:href="#m36604300c4" y="112.7"/>
      </g>
     </g>
     <g id="text_3">
      <text style="fill:#262626;font-family:Arial;font-size:8px;font-style:normal;font-weight:normal;text-anchor:middle;" transform="rotate(-0, 105.585407, 127.92625)" x="105.585407" y="127.92625">40</text>
     </g>
    </g>
    <g id="xtick_4">
     <g id="line2d_4">
      <g>
       <use style="fill:#262626;stroke:#262626;stroke-width:0.8;" x="134.86284" xlink:href="#m36604300c4" y="112.7"/>
      </g>
     </g>
     <g id="text_4">
      <text style="fill:#262626;font-family:Arial;font-size:8px;font-style:normal;font-weight:normal;text-anchor:middle;" transform="rotate(-0, 134.86284, 127.92625)" x="134.86284" y="127.92625">60</text>
     </g>
    </g>
    <g id="xtick_5">
     <g id="line2d_5">
      <g>
       <use style="fill:#262626;stroke:#262626;stroke-width:0.8;" x="164.140273" xlink:href="#m36604300c4" y="112.7"/>
      </g>
     </g>
     <g id="text_5">
      <text style="fill:#262626;font-family:Arial;font-size:8px;font-style:normal;font-weight:normal;text-anchor:middle;" transform="rotate(-0, 164.140273, 127.92625)" x="164.140273" y="127.92625">80</text>
     </g>
    </g>
    <g id="xtick_6">
     <g id="line2d_6">
      <g>
       <use style="fill:#262626;stroke:#262626;stroke-width:0.8;" x="193.417707" xlink:href="#m36604300c4" y="112.7"/>
      </g>
     </g>
     <g id="text_6">
      <text style="fill:#262626;font-family:Arial;font-size:8px;font-style:normal;font-weight:normal;text-anchor:middle;" transform="rotate(-0, 193.417707, 127.92625)" x="193.417707" y="127.92625">100</text>
     </g>
    </g>
    <g id="text_7">
     <text style="fill:#262626;font-family:Arial;font-size:8px;font-style:normal;font-weight:normal;text-anchor:middle;" transform="rotate(-0, 119.492188, 139.2425)" x="119.492188" y="139.2425">Time [au]</text>
    </g>
   </g>
   <g id="matplotlib.axis_2">
    <g id="ytick_1">
     <g id="line2d_7">
      <defs>
       <path d="M 0 0 
L -6 0 
" id="m6ad41222fb" style="stroke:#262626;stroke-width:0.8;"/>
      </defs>
      <g>
       <use style="fill:#262626;stroke:#262626;stroke-width:0.8;" x="34.784375" xlink:href="#m6ad41222fb" y="97.937169"/>
      </g>
     </g>
     <g id="text_8">
      <text style="fill:#262626;font-family:Arial;font-size:8px;font-style:normal;font-weight:normal;text-anchor:end;" transform="rotate(-0, 25.284375, 100.800294)" x="25.284375" y="100.800294">−2</text>
     </g>
    </g>
    <g id="ytick_2">
     <g id="line2d_8">
      <g>
       <use style="fill:#262626;stroke:#262626;stroke-width:0.8;" x="34.784375" xlink:href="#m6ad41222fb" y="62.196169"/>
      </g>
     </g>
     <g id="text_9">
      <text style="fill:#262626;font-family:Arial;font-size:8px;font-style:normal;font-weight:normal;text-anchor:end;" transform="rotate(-0, 25.284375, 65.059294)" x="25.284375" y="65.059294">0</text>
     </g>
    </g>
    <g id="ytick_3">
     <g id="line2d_9">
      <g>
       <use style="fill:#262626;stroke:#262626;stroke-width:0.8;" x="34.784375" xlink:href="#m6ad41222fb" y="26.45517"/>
      </g>
     </g>
     <g id="text_10">
      <text style="fill:#262626;font-family:Arial;font-size:8px;font-style:normal;font-weight:normal;text-anchor:end;" transform="rotate(-0, 25.284375, 29.318295)" x="25.284375" y="29.318295">2</text>
     </g>
    </g>
    <g id="text_11">
     <text style="fill:#262626;font-family:Arial;font-size:8px;font-style:normal;font-weight:normal;text-anchor:middle;" transform="rotate(-90, 10.573125, 62.25)" x="10.573125" y="62.25">Data [au]</text>
    </g>
   </g>
   <g id="line2d_10">
    <path clip-path="url(#p8dbeab4568)" d="M 47.03054 79.104619 
L 48.494411 72.753646 
L 49.958283 41.386758 
L 51.422155 58.835625 
L 52.886026 56.209201 
L 54.349898 74.857603 
L 55.81377 54.235703 
L 57.277641 64.685176 
L 58.741513 75.004077 
L 60.205385 73.616001 
L 61.669256 53.897026 
L 63.133128 48.060998 
L 64.597 70.001867 
L 66.060871 84.21239 
L 67.524743 93.62988 
L 68.988615 65.327478 
L 70.452487 55.792823 
L 71.916358 86.772355 
L 73.38023 77.14264 
L 74.844102 71.725124 
L 76.307973 38.28765 
L 77.771845 71.380376 
L 79.235717 60.814863 
L 80.699588 38.064017 
L 82.16346 52.069497 
L 83.627332 53.155417 
L 85.091203 63.139908 
L 86.555075 54.851407 
L 88.018947 69.379602 
L 89.482818 20.931818 
L 90.94669 52.224453 
L 92.410562 64.158709 
L 93.874433 55.478561 
L 95.338305 82.40481 
L 96.802177 73.344915 
L 98.266048 41.52206 
L 99.72992 44.667842 
L 101.193792 61.560406 
L 102.657663 62.056294 
L 104.121535 68.417438 
L 105.585407 78.62522 
L 107.049278 95.749133 
L 108.51315 63.395272 
L 109.977022 68.256671 
L 111.440893 68.75959 
L 112.904765 63.087547 
L 114.368637 48.085271 
L 115.832508 44.041072 
L 117.29638 63.436923 
L 118.760252 88.745544 
L 120.224123 65.139086 
L 121.687995 70.260469 
L 123.151867 84.824919 
L 124.615738 66.392314 
L 126.07961 63.906007 
L 127.543482 71.431871 
L 129.007353 54.212891 
L 130.471225 52.141044 
L 131.935097 63.803822 
L 133.398968 25.884741 
L 134.86284 61.11587 
L 136.326712 49.481849 
L 137.790583 29.094316 
L 139.254455 103.568182 
L 140.718327 78.283052 
L 142.182198 30.213366 
L 143.64607 53.415774 
L 145.109942 76.268792 
L 146.573813 56.035251 
L 148.037685 65.895484 
L 149.501557 77.624361 
L 150.965428 75.282428 
L 152.4293 57.782223 
L 153.893172 69.037443 
L 155.357043 51.825285 
L 156.820915 47.286229 
L 158.284787 60.885797 
L 159.748658 46.48136 
L 161.21253 69.284774 
L 162.676402 77.326422 
L 164.140273 65.680343 
L 165.604145 48.671345 
L 167.068017 67.148887 
L 168.531888 88.270632 
L 169.99576 76.301134 
L 171.459632 96.33783 
L 172.923504 42.217299 
L 174.387375 82.705923 
L 175.851247 45.499365 
L 177.315119 36.363439 
L 178.77899 48.209854 
L 180.242862 64.931853 
L 181.706734 60.443995 
L 183.170605 41.160281 
L 184.634477 69.321554 
L 186.098349 60.970154 
L 187.56222 74.522151 
L 189.026092 81.991206 
L 190.489964 85.61675 
L 191.953835 87.578371 
" style="fill:none;stroke:#1f77b4;stroke-linecap:round;stroke-width:1.5;"/>
   </g>
   <g id="patch_3">
    <path d="M 34.784375 97.937169 
L 34.784375 26.45517 
" style="fill:none;stroke:#262626;stroke-linecap:square;stroke-linejoin:miter;stroke-width:1.25;"/>
   </g>
   <g id="patch_4">
    <path d="M 47.03054 112.7 
L 193.417707 112.7 
" style="fill:none;stroke:#262626;stroke-linecap:square;stroke-linejoin:miter;stroke-width:1.25;"/>
   </g>
  </g>
 </g>
 <defs>
  <clipPath id="p8dbeab4568">
   <rect height="90.9" width="159.415625" x="39.784375" y="16.8"/>
  </clipPath>
 </defs>
</svg>
